<svg xmlns="http://www.w3.org/2000/svg" version="1.1" xmlns:xlink="http://www.w3.org/1999/xlink" width="512" height="512"><svg xmlns="http://www.w3.org/2000/svg" xml:space="preserve" viewBox="0 0 512 512"><path fill="#ffdb57" d="M419 367H22c-12 0-22-10-22-22V167c0-12 10-22 22-22h397c6 0 13 3 17 8l71 89c7 8 7 20 0 28l-71 89c-4 5-11 8-17 8z"></path><path fill="#fffa7d" d="M507 242c3 4 5 9 5 14H0v-89c0-12 10-22 22-22h397c6 0 13 3 17 8l71 89z"></path><path fill="#ffbc00" d="M296 367H22c-12 0-22-10-22-22V167c0-12 10-22 22-22h274c7 0 13 3 17 8l72 89c6 8 6 20 0 28l-72 89c-4 5-10 8-17 8z"></path><path fill="#ffdb57" d="M385 242c3 4 5 9 5 14H0v-89c0-12 10-22 22-22h274c7 0 13 3 17 8l72 89z"></path><path fill="#ff6029" d="M174 367H22c-12 0-22-10-22-22V167c0-12 10-22 22-22h152c6 0 13 3 17 8l71 89c7 8 7 20 0 28l-71 89c-4 5-11 8-17 8z"></path><path fill="#ff8655" d="M262 242c4 4 5 9 5 14H0v-89c0-12 10-22 22-22h152c6 0 13 3 17 8l71 89z"></path><path fill="#ff6029" d="m69 153 71 89c6 8 6 20 0 28l-71 89c-5 5-11 8-18 8H22c-12 0-22-10-22-22V167c0-12 10-22 22-22h29c7 0 13 3 18 8z"></path><path fill="#b7441c" d="M69 359c-5 5-11 8-18 8H22c-12 0-22-10-22-22v-89h145c0 5-2 10-5 14l-71 89z"></path></svg><style>@media (prefers-color-scheme: light) { :root { filter: none; } }
@media (prefers-color-scheme: dark) { :root { filter: none; } }
</style></svg>